<?xml version="1.0" encoding="UTF-8"?>
<svg version="1.1" xmlns="http://www.w3.org/2000/svg" width="1024" height="1024">
<path d="M0 0 C337.92 0 675.84 0 1024 0 C1024 337.92 1024 675.84 1024 1024 C686.08 1024 348.16 1024 0 1024 C0 686.08 0 348.16 0 0 Z " fill="#FDFDFD" transform="translate(0,0)"/>
<path d="M0 0 C0 0.66 0 1.32 0 2 C-3.46368035 2.4973264 -6.92767615 2.99009604 -10.39453125 3.46484375 C-18.80714669 4.62818829 -27.09778174 5.95276538 -35.3125 8.125 C-38.40812012 8.85955393 -40.85142195 9.19678613 -44 9 C-44 9.66 -44 10.32 -44 11 C-45.3921875 11.4021875 -45.3921875 11.4021875 -46.8125 11.8125 C-47.7715625 12.0909375 -47.7715625 12.0909375 -48.75 12.375 C-50.34693082 12.81859189 -51.95230599 13.23226975 -53.5625 13.625 C-59.21597879 15.0383697 -64.10895921 16.88731077 -69.2578125 19.6015625 C-72.5130859 21.26165919 -75.83322315 22.74208172 -79.1875 24.1875 C-80.31542969 24.67605469 -81.44335938 25.16460937 -82.60546875 25.66796875 C-86 27 -86 27 -89.86328125 27.98828125 C-90.89839844 28.32214844 -91.93351563 28.65601563 -93 29 C-93.33 29.99 -93.66 30.98 -94 32 C-95.7565918 32.9855957 -95.7565918 32.9855957 -98.01171875 33.86328125 C-102.90179788 35.90186138 -107.31469116 38.40049301 -111.8125 41.1875 C-112.59367188 41.66872314 -113.37484375 42.14994629 -114.1796875 42.64575195 C-120.75153474 46.74571308 -126.92710386 51.18633674 -133 56 C-133.8353125 56.64324219 -134.670625 57.28648437 -135.53125 57.94921875 C-150.42911815 69.57049881 -164.48084826 83.01122424 -176 98 C-176.42104004 98.54462891 -176.84208008 99.08925781 -177.27587891 99.65039062 C-188.60631991 114.39361506 -198.1659782 130.13829021 -206 147 C-206.44730469 147.95390625 -206.89460938 148.9078125 -207.35546875 149.890625 C-218.49778368 175.13211514 -224.18813851 202.6189371 -224.18530273 230.12597656 C-224.18746945 232.46698757 -224.20561956 234.80751069 -224.22460938 237.1484375 C-224.27915137 251.40671122 -222.92345427 265.31055657 -219.8125 279.25 C-219.60036865 280.20890137 -219.3882373 281.16780273 -219.16967773 282.15576172 C-215.93864895 296.19180198 -211.5460485 310.18124751 -204.99609375 323.04345703 C-204.23799536 324.53252578 -203.48976752 326.02662431 -202.74609375 327.52294922 C-196.35753005 340.35568737 -189.60815091 352.52453422 -181 364 C-180.32952637 364.90153809 -180.32952637 364.90153809 -179.64550781 365.82128906 C-161.64539361 389.86031846 -139.12287975 411.0940988 -112.88574219 425.93212891 C-111.49058039 426.72219075 -110.10149628 427.52300676 -108.71582031 428.32958984 C-71.43881601 449.97220548 -28.20394906 462.8935898 15.0625 463.23828125 C16.08395615 463.2480751 17.10541229 463.25786896 18.15782166 463.26795959 C39.46624367 463.43038167 60.07274427 463.42554995 81 459 C83.24323868 458.57030268 85.4867376 458.14196211 87.73046875 457.71484375 C141.51596176 447.03773774 193.85941524 418.43570972 228 375 C228.8146875 373.99066406 229.629375 372.98132813 230.46875 371.94140625 C236.76903663 364.05325241 242.02702537 355.77503357 247 347 C247.34272949 346.41025391 247.68545898 345.82050781 248.03857422 345.21289062 C253.92098135 335.06440077 258.17042416 324.47106974 262.12451172 313.44189453 C262.89311382 311.29812482 263.68057297 309.16250083 264.47265625 307.02734375 C272.68812248 283.93861755 279.6076513 249.10909627 273.48901367 224.98535156 C272.91348008 222.64873689 272.93685515 220.62284139 273.0078125 218.21875 C273.03584961 216.83985596 273.03584961 216.83985596 273.06445312 215.43310547 C273.08443359 214.46518066 273.10441406 213.49725586 273.125 212.5 C273.21816541 204.98915178 272.95992975 198.43052153 270.65625 191.2421875 C270 189 270 189 270 185 C269.34 184.67 268.68 184.34 268 184 C267.4375 182.25 267.4375 182.25 267 180 C266.835 179.195625 266.67 178.39125 266.5 177.5625 C266.16666667 175.85416667 265.83333333 174.14583333 265.5 172.4375 C265.335 171.633125 265.17 170.82875 265 170 C264.855625 169.2575 264.71125 168.515 264.5625 167.75 C264.376875 167.1725 264.19125 166.595 264 166 C263.34 165.67 262.68 165.34 262 165 C261.25390625 163.28515625 261.25390625 163.28515625 260.5625 161.0625 C260.17964844 159.85787109 260.17964844 159.85787109 259.7890625 158.62890625 C259.2486629 156.828466 258.72333442 155.02345267 258.2109375 153.21484375 C257.82808594 151.87099609 257.82808594 151.87099609 257.4375 150.5 C257.20933594 149.6646875 256.98117187 148.829375 256.74609375 147.96875 C256.18178418 145.80843337 256.18178418 145.80843337 254 145 C253.32421875 143.14453125 253.32421875 143.14453125 252.6875 140.8125 C251.68925752 137.58858422 250.7262078 135.35892112 248.4375 132.875 C245.56829069 129.4908044 244.93794262 127.26337556 244 123 C243.34 123 242.68 123 242 123 C241.87625 122.360625 241.7525 121.72125 241.625 121.0625 C241.315625 120.0415625 241.315625 120.0415625 241 119 C240.34 118.67 239.68 118.34 239 118 C238.18586425 116.52305484 237.42522328 115.01655807 236.6875 113.5 C233.78856415 108.0377194 230.32938346 103.21111359 226.5625 98.3125 C226.02520264 97.61253906 225.48790527 96.91257812 224.93432617 96.19140625 C218.89061293 87.53110912 218.89061293 87.53110912 211 81 C210 79.33333333 209 77.66666667 208 76 C207.34 75.67 206.68 75.34 206 75 C206 74.34 206 73.68 206 73 C205.34 73 204.68 73 204 73 C203.4225 72.2575 202.845 71.515 202.25 70.75 C200.12296213 67.87214333 200.12296213 67.87214333 197.0625 66.0625 C194.23490339 64.15820024 192.68649012 62.37411229 190.625 59.72265625 C186.60663895 55.46280715 181.24132224 51.62066112 176 49 C176 48.34 176 47.68 176 47 C175.319375 46.7525 174.63875 46.505 173.9375 46.25 C170.43134917 44.75802092 167.28379632 42.93164489 164 41 C164 40.34 164 39.68 164 39 C163.34 39 162.68 39 162 39 C162.33 38.01 162.66 37.02 163 36 C168.54803541 38.34775021 173.83942239 40.93034665 179.0546875 43.94921875 C181.11413489 45.13395486 181.11413489 45.13395486 184 46 C184 46.66 184 47.32 184 48 C185.0828125 48.37125 185.0828125 48.37125 186.1875 48.75 C189 50 189 50 191.5625 52.0625 C193.86143125 53.88985561 195.15122727 54.5779596 198 55 C198 55.66 198 56.32 198 57 C198.721875 57.268125 199.44375 57.53625 200.1875 57.8125 C204.31124525 59.55363688 208.11094436 61.50272212 211 65 C211 65.66 211 66.32 211 67 C211.721875 67.2475 212.44375 67.495 213.1875 67.75 C218.39327501 70.06367778 222.06770117 73.96142283 226 78 C227.92141805 80.03468933 227.92141805 80.03468933 230.125 81.5 C230.74375 81.995 231.3625 82.49 232 83 C232 83.66 232 84.32 232 85 C232.66 85 233.32 85 234 85 C234.33 86.32 234.66 87.64 235 89 C236.175625 89.0928125 236.175625 89.0928125 237.375 89.1875 C238.24125 89.455625 239.1075 89.72375 240 90 C241.1875 92.5 241.1875 92.5 242 95 C242.66 95.33 243.32 95.66 244 96 C245.68816933 97.64488294 247.35353315 99.31337542 249 101 C249.515625 101.515625 250.03125 102.03125 250.5625 102.5625 C251.036875 103.036875 251.51125 103.51125 252 104 C252.9590625 104.86625 252.9590625 104.86625 253.9375 105.75 C256.01511766 108.01649199 257.35078193 110.3380109 258.8125 113.02734375 C260.15490832 115.25733125 261.68490028 117.21913338 263.3125 119.25 C269.09565531 126.54661936 273.78132967 134.51889595 278.4375 142.5625 C278.96911743 143.474552 278.96911743 143.474552 279.51147461 144.4050293 C282 148.76195411 282 148.76195411 282 151 C282.66 151 283.32 151 284 151 C284.12375 151.969375 284.2475 152.93875 284.375 153.9375 C284.58125 154.948125 284.7875 155.95875 285 157 C285.66 157.33 286.32 157.66 287 158 C288.3749149 160.90259811 289 162.76138705 289 166 C289.66 166 290.32 166 291 166 C291.12117187 166.71027344 291.24234375 167.42054688 291.3671875 168.15234375 C291.61855469 169.53099609 291.61855469 169.53099609 291.875 170.9375 C292.03742187 171.85402344 292.19984375 172.77054688 292.3671875 173.71484375 C292.57601562 174.46894531 292.78484375 175.22304688 293 176 C293.66 176.33 294.32 176.66 295 177 C295.74609375 178.71484375 295.74609375 178.71484375 296.4375 180.9375 C296.69402344 181.75863281 296.95054687 182.57976562 297.21484375 183.42578125 C297.47394531 184.27527344 297.73304688 185.12476563 298 186 C298.24878906 186.75667969 298.49757813 187.51335937 298.75390625 188.29296875 C300.76059244 194.56517638 302.04580824 200.92305314 303.25390625 207.38671875 C303.95874699 211.03345699 303.95874699 211.03345699 305.05859375 214.67578125 C305.82788229 217.39223165 306.29764074 219.70744216 306.5 222.5 C306.82739445 226.6068685 307.39289698 230.63860018 308.01171875 234.7109375 C309.13873582 242.74184969 309.33871125 250.69769988 309.31567383 258.79833984 C309.3124927 261.13035031 309.33616771 263.46111164 309.36132812 265.79296875 C309.39430252 273.94842038 308.87254728 281.32161539 306.68188477 289.24755859 C305.98892106 292.04472037 305.7434246 294.62595759 305.625 297.5 C303.48593946 328.72205678 287.70521237 361.6503535 270 387 C269.34644531 387.98097656 268.69289063 388.96195313 268.01953125 389.97265625 C254.31103685 410.32916386 236.73235057 429.32117606 216.79150391 443.69580078 C214.80848571 445.13942073 212.86429479 446.62841244 210.91796875 448.12109375 C199.59749148 456.68890225 187.64562124 463.57767223 175 470 C174.18917969 470.41233887 173.37835937 470.82467773 172.54296875 471.24951172 C143.61951947 485.78918098 113.79664554 494.41839965 82 500 C80.48599609 500.27336182 80.48599609 500.27336182 78.94140625 500.55224609 C37.11262161 507.76039571 -8.32949692 504.21888857 -49.375 494.3671875 C-50.34381104 494.14393799 -51.31262207 493.92068848 -52.31079102 493.69067383 C-55 493 -55 493 -57.26538086 492.12768555 C-61.07128067 490.79412051 -63.19385771 490.69735539 -67.02783203 492.13671875 C-70.63451861 493.97816269 -74.09347168 495.97793508 -77.5625 498.0625 C-78.85080936 498.8099771 -80.14079515 499.55457167 -81.43237305 500.29638672 C-84.05010374 501.80197446 -86.6608477 503.31871758 -89.26757812 504.84326172 C-94.54051316 507.91057651 -99.92712637 510.76136677 -105.3125 513.625 C-114.45974389 518.54109952 -123.44717362 523.69938822 -132.39672852 528.96557617 C-139.19204696 532.96146821 -146.0382653 536.84554807 -152.94506836 540.64501953 C-158.26248992 543.57345459 -163.5038592 546.60779207 -168.71484375 549.72265625 C-172.39120011 551.77764519 -175.3491703 552.18305113 -179.5 552.25 C-180.4590625 552.27578125 -181.418125 552.3015625 -182.40625 552.328125 C-185 552 -185 552 -186.84375 550.984375 C-189.64913722 546.16972396 -188.00933305 540.5615638 -186.6796875 535.48828125 C-186.08864332 533.42664296 -185.48653869 531.36815223 -184.875 529.3125 C-184.55805176 528.21397705 -184.24110352 527.1154541 -183.91455078 525.98364258 C-182.9523509 522.65296916 -181.97709083 519.32633082 -181 516 C-179.95228405 512.3975627 -178.91140174 508.79320761 -177.875 505.1875 C-177.62999756 504.33736328 -177.38499512 503.48722656 -177.13256836 502.61132812 C-175.21013945 495.88057735 -173.49209283 489.10931559 -171.82373047 482.31176758 C-169.92275382 474.59429019 -167.80815146 466.9449054 -165.64697266 459.296875 C-164.48161833 455.15964725 -163.33598668 451.01693517 -162.1875 446.875 C-161.76440314 445.35154022 -161.34123386 443.82810055 -160.91796875 442.3046875 C-160.61503906 441.21414063 -160.31210937 440.12359375 -160 439 C-160.55574707 438.75137207 -161.11149414 438.50274414 -161.68408203 438.24658203 C-171.03196607 433.21492528 -178.72517224 424.58727356 -186.125 417.125 C-187.04925781 416.20847656 -187.97351563 415.29195312 -188.92578125 414.34765625 C-224.97008904 378.20167199 -248.72854104 330.11272928 -257.62988281 280.05615234 C-257.94781253 278.28992276 -258.29525699 276.52905101 -258.6484375 274.76953125 C-261.00280853 262.94649411 -261.19425662 250.9575312 -261.1875 238.9375 C-261.18789276 238.26756012 -261.18828552 237.59762024 -261.18869019 236.90737915 C-261.16802662 207.33605323 -261.16802662 207.33605323 -258 201 C-257.74872793 199.4409022 -257.52495542 197.87735984 -257.3125 196.3125 C-252.14269245 165.07049751 -239.792441 133.6128636 -221 108 C-220.61489258 107.4750293 -220.22978516 106.95005859 -219.83300781 106.40917969 C-214.96996916 99.82614481 -209.86109845 93.52549871 -204.30078125 87.51171875 C-202.38512704 85.4204358 -200.52981412 83.29704673 -198.6796875 81.1484375 C-167.52726808 45.49876421 -122.30931733 21.75093495 -77.375 8.875 C-76.35035645 8.57940186 -75.32571289 8.28380371 -74.27001953 7.97924805 C-68.59828432 6.43365537 -63.85549374 5.86410055 -58 6 C-54.87234981 5.64781765 -51.78541803 5.11432467 -48.6875 4.5625 C-47.89021484 4.42779297 -47.09292969 4.29308594 -46.27148438 4.15429688 C-43.06510906 3.60147355 -40.0948437 3.03161457 -37 2 C-35 2 -33 2 -31 2 C-28.66487041 1.67949202 -26.33177975 1.34403308 -24 1 C-15.98468385 0.04793998 -8.06655651 -0.11541973 0 0 Z " fill="#6D68B4" transform="translate(501,223)"/>
<path d="M0 0 C5.19839905 3.20974975 8.55822353 8.96973145 11.9375 13.9375 C12.5406604 14.79625732 12.5406604 14.79625732 13.15600586 15.67236328 C16.21200212 20.38710082 16.69192473 23.56668943 16 29 C14.55859375 30.77734375 14.55859375 30.77734375 12.4375 31.9375 C11.19613281 32.66066406 11.19613281 32.66066406 9.9296875 33.3984375 C8.96289062 33.92695313 7.99609375 34.45546875 7 35 C4.68036226 36.3435254 2.36768776 37.69468646 0.0625 39.0625 C-0.88810303 39.62445068 -0.88810303 39.62445068 -1.85791016 40.19775391 C-9.49594975 44.78583621 -16.63254037 50.05342411 -23.78320312 55.35791016 C-25.90540561 56.92992931 -28.03737762 58.48770463 -30.171875 60.04296875 C-39.53231875 66.9073695 -48.36521355 74.24626639 -57 82 C-57.59506348 82.53189941 -58.19012695 83.06379883 -58.80322266 83.61181641 C-65.26943418 89.41063964 -71.51889008 95.24073209 -77 102 C-77.91127409 103.08739401 -78.82275183 104.17461737 -79.734375 105.26171875 C-90.93003774 118.76582138 -99.47321791 133.1895527 -107 149 C-107.66 149 -108.32 149 -109 149 C-109.02578125 147.93523437 -109.0515625 146.87046875 -109.078125 145.7734375 C-109.75908583 126.05985004 -115.64645558 108.82537797 -129 94 C-129.52980469 93.38898438 -130.05960937 92.77796875 -130.60546875 92.1484375 C-141.26013639 80.62561176 -157.24751073 71.55269902 -173.078125 70.6640625 C-184.9132504 70.40744781 -195.54195928 71.81524399 -204.90234375 79.765625 C-215.48711715 91.04028121 -219.1709684 105.07895278 -221 120 C-221.33 120 -221.66 120 -222 120 C-228.39469183 92.66557581 -221.30557298 60.68565917 -207.03125 37.078125 C-203.97045396 32.43984177 -200.68874027 28.15424095 -197 24 C-196.33613281 23.23042969 -195.67226563 22.46085937 -194.98828125 21.66796875 C-185.33203785 11.19067693 -171.50322429 3.98969913 -157.23046875 2.76171875 C-144.00993129 2.43926662 -132.60808935 6.27171808 -120.5 11.0625 C-85.82910143 24.65209843 -48.22745724 17.47999707 -15 3 C-14.01918457 2.56083252 -14.01918457 2.56083252 -13.01855469 2.11279297 C-8.48178376 0.09979663 -4.90298158 -1.28666713 0 0 Z " fill="#03A6E0" transform="translate(518,348)"/>
<path d="M0 0 C2.64280675 2.209033 3.95602173 4.71794182 5.44702148 7.78393555 C10.15767159 17.43165349 15.97135081 26.28820244 21.9375 35.1875 C22.3574826 35.81540436 22.77746521 36.44330872 23.21017456 37.09024048 C31.46982044 49.41570985 39.94431097 61.58847764 49.125 73.25 C49.72481689 74.01594482 50.32463379 74.78188965 50.94262695 75.57104492 C52.62504311 77.71671198 54.31178803 79.85889219 56 82 C56.75410156 82.96035156 57.50820313 83.92070313 58.28515625 84.91015625 C66.24912456 94.96732362 74.57900893 104.6814297 83.3046875 114.08203125 C85.96611039 116.96331082 88.5762328 119.8858045 91.1875 122.8125 C94.5883513 126.55611427 98.06364469 129.99767918 101.93359375 133.25 C104.36943864 135.31287053 106.71002368 137.46767632 109.0625 139.625 C112.87240384 143.07570116 116.78595264 146.0684888 121 149 C121 149.33 121 149.66 121 150 C90.4913947 150.83627649 62.14937868 141.9299973 36.40625 125.47265625 C35.47192139 124.87606201 34.53759277 124.27946777 33.57495117 123.66479492 C31.78211884 122.50321703 30.00254612 121.32081294 28.23950195 120.11450195 C23.36675321 116.91400622 19.83820081 115.35001819 13.95947266 115.57983398 C10.24675022 116.37594603 8.54387121 118.20794624 6 121 C2.34279753 128.31440494 2.70747185 137.44492002 5.1796875 145.1171875 C10.40428422 158.99414112 19.86107922 169.11594573 33 176 C33.85335937 176.45890625 34.70671875 176.9178125 35.5859375 177.390625 C45.41298756 182.06480927 56.34223499 183.32281034 67 185 C67 185.33 67 185.66 67 186 C58.94593076 187.55922639 51.20132531 188.3574727 43 188.3125 C41.91984619 188.30758545 40.83969238 188.3026709 39.72680664 188.29760742 C9.11689213 187.85823066 -19.67513624 178.08746628 -43 158 C-44.03253906 157.11248047 -44.03253906 157.11248047 -45.0859375 156.20703125 C-56.37094098 145.74721577 -65.08925236 130.41492839 -66.22265625 114.96484375 C-66.67872589 98.32821655 -60.86226929 84.5405782 -49.47729492 72.45361328 C-45.89458395 68.7744657 -42.116999 65.32175924 -38.3125 61.875 C-22.69767467 47.68073738 -14.52455189 29.34572367 -5.60888672 10.58862305 C-5.16263443 9.65138901 -5.16263443 9.65138901 -4.70736694 8.69522095 C-3.8879209 6.97180422 -3.07179495 5.24681001 -2.25585938 3.52172852 C-1 1 -1 1 0 0 Z " fill="#E252B2" transform="translate(444,468)"/>
<path d="M0 0 C1.3197583 0.00797607 2.6395166 0.01595215 3.99926758 0.02416992 C13.08306283 0.15723497 21.36029626 0.88239245 30.125 3.375 C31.49398437 3.68244141 31.49398437 3.68244141 32.890625 3.99609375 C52.89572001 8.70489535 73.96525336 20.04023417 85.8203125 37.2265625 C93.8534314 50.45475231 97.9095654 64.60275252 94.25 80.07421875 C91.73858921 87.98020601 88.4053604 95.34918582 84.67578125 102.7421875 C81.47426985 110.24194971 80.76084069 117.46546437 80.8125 125.5625 C80.81741455 126.48087646 80.8223291 127.39925293 80.82739258 128.34545898 C81.1759052 148.75042598 89.15851824 165.42593839 102.06640625 180.90234375 C107.86922735 187.8723357 107.86922735 187.8723357 108.625 192.3125 C107.67813893 198.11202408 105.00708731 201.99262862 100.375 205.4296875 C98.96845948 206.38487547 97.55148062 207.32485496 96.125 208.25 C95.4134375 208.7346875 94.701875 209.219375 93.96875 209.71875 C87.8849185 213.78220462 87.8849185 213.78220462 84.125 214.375 C73.19971191 208.07288505 63.90310544 194.05386433 56.125 184.375 C55.12880154 183.15787315 54.13132736 181.94178973 53.1328125 180.7265625 C45.24169818 171.10705545 37.61862125 161.30652757 30.125 151.375 C29.61050293 150.69405273 29.09600586 150.01310547 28.56591797 149.31152344 C20.25842553 138.30693016 12.04239217 127.23416297 4.00390625 116.03125 C-3.43671869 105.66471336 -11.04256372 95.44916171 -18.875 85.375 C-19.62652344 84.40691406 -20.37804687 83.43882812 -21.15234375 82.44140625 C-30.55895154 70.50153378 -40.94857723 58.10955367 -53.51171875 49.3984375 C-53.96160156 49.06070313 -54.41148437 48.72296875 -54.875 48.375 C-54.875 48.045 -54.875 47.715 -54.875 47.375 C-30.02418765 46.60641817 -8.57656422 52.85933779 12.15625 66.734375 C15.22856431 68.70173417 17.05764873 69.37383877 20.75 69.4375 C24.83838273 68.15041655 26.5031143 66.7459959 29.125 63.375 C32.56072852 54.82197161 32.39935667 45.5991481 29 37.0625 C22.11237255 22.55410829 13.60841465 15.07095535 -1.3671875 9.4375 C-8.43245817 6.96346582 -15.31280432 6.1969652 -22.75 5.8125 C-23.53375 5.76931641 -24.3175 5.72613281 -25.125 5.68164062 C-27.04150649 5.57646649 -28.95823333 5.47532075 -30.875 5.375 C-22.07011164 -0.49492557 -10.20295023 -0.11134753 0 0 Z " fill="#FDB02F" transform="translate(538.875,238.625)"/>
<path d="M0 0 C0.33 0 0.66 0 1 0 C2.14769025 22.47560065 -6.33465377 42.09824446 -19.2421875 60.1328125 C-21.88563197 64.44456415 -21.91725139 68.09469909 -21 73 C-18.69794238 77.69227915 -14.7545307 80.11799827 -10 82 C0.12600012 85.09405559 10.4636839 82.46387147 19.625 77.8125 C31.04448226 70.94876901 38.05623828 59.19396947 41.5 46.4375 C43.01659733 37.1416505 42.30279251 27.28239661 41 18 C41.66 18 42.32 18 43 18 C49.83761109 43.25551671 51.32671927 69.90966971 43 95 C42.59265625 96.24652344 42.1853125 97.49304688 41.765625 98.77734375 C36.17633283 114.32936776 27.67329382 128.64495168 13 137 C12.00742187 137.58007812 11.01484375 138.16015625 9.9921875 138.7578125 C-1.56399327 144.6315214 -15.67112007 145.26321212 -28.125 141.625 C-34.29137873 139.17256325 -40.08770093 135.82136233 -45.91113281 132.6550293 C-52.4374125 129.15320287 -58.76043604 126.68781623 -66 125 C-66.79019531 124.81179688 -67.58039063 124.62359375 -68.39453125 124.4296875 C-88.43458811 121.1247306 -107.05059581 127.83721752 -123.31640625 139.26953125 C-126.25778089 141.45926387 -129.13213836 143.71510069 -132 146 C-134.1975902 147.68108777 -136.41061795 149.34112729 -138.625 151 C-139.60726562 151.7425 -140.58953125 152.485 -141.6015625 153.25 C-145.65280353 156.20595436 -149.05551156 156.64936996 -154 156 C-161.46744154 152.19008084 -167.54817274 145.59401997 -171 138 C-171.75 135 -171.75 135 -171 132 C-168.65767374 129.25175925 -165.87486403 127.16727366 -163 125 C-161.65808594 123.98099609 -161.65808594 123.98099609 -160.2890625 122.94140625 C-158.29036341 121.4383631 -156.28615109 119.94263158 -154.27734375 118.453125 C-146.49950152 112.66386876 -138.91897776 106.60319461 -131.4375 100.4375 C-127.04389648 96.82112751 -122.56708832 93.32592921 -118.04663086 89.87084961 C-114.00470592 86.78010571 -109.99549355 83.65049506 -106 80.5 C-101.07942894 76.62287925 -96.1364201 72.77763548 -91.16040039 68.97167969 C-88.050064 66.58929437 -84.95984024 64.1841628 -81.88671875 61.75390625 C-68.89998508 51.50693485 -55.47968034 42.00396909 -41.73828125 32.796875 C-30.23362535 25.07565271 -19.04221745 17.26979463 -8.50195312 8.26318359 C-7.09880771 7.08309998 -5.65218664 5.95525641 -4.203125 4.83203125 C-1.80285338 3.01313009 -1.80285338 3.01313009 0 0 Z " fill="#81CD52" transform="translate(707,415)"/>
<path d="M0 0 C7.62353866 4.63445336 12.5399864 9.06469424 16.171875 17.3203125 C16.71908203 18.45533203 16.71908203 18.45533203 17.27734375 19.61328125 C19.97686297 27.78256866 19.13027804 38.45547553 15.42578125 46.1484375 C11.18023925 53.50208658 6.64937506 58.18190298 -0.828125 62.3203125 C-1.73304688 62.83271484 -1.73304688 62.83271484 -2.65625 63.35546875 C-10.4025936 66.97604239 -20.86076938 66.54731881 -28.890625 64.0703125 C-37.68489 60.51973074 -45.12912816 54.12747501 -49.05078125 45.42578125 C-53.03203522 34.64238481 -52.49394268 24.86531064 -47.828125 14.3203125 C-43.39472124 7.88360253 -37.86983501 2.75529299 -30.828125 -0.6796875 C-29.74337891 -1.22496094 -29.74337891 -1.22496094 -28.63671875 -1.78125 C-20.05357833 -4.52689993 -8.05610422 -3.97249277 0 0 Z " fill="#02C4E1" transform="translate(447.828125,285.6796875)"/>
<path d="M0 0 C10.74727203 5.08794904 16.24361225 11.8559235 20.3359375 22.8984375 C23.00368925 31.60283263 21.67084983 40.03306745 17.87109375 48.140625 C13.26338966 56.41807815 7.10346485 61.29414816 -1.6640625 64.8984375 C-13.42400113 67.41509544 -22.445057 66.3257758 -32.6640625 59.8984375 C-33.28152344 59.51558594 -33.89898437 59.13273438 -34.53515625 58.73828125 C-40.89873529 54.12675255 -45.3760908 45.49747056 -46.6640625 37.8984375 C-47.61625328 26.45727012 -45.44613668 18.72381941 -38.3671875 9.75 C-28.15274942 -1.35468727 -14.31649644 -4.30410661 0 0 Z " fill="#0678DD" transform="translate(371.6640625,454.1015625)"/>
<path d="M0 0 C7.00495257 4.92990058 13.20008164 10.94358146 14.8828125 19.64453125 C16.04852969 29.95936217 14.99425224 38.09855494 8.8828125 46.64453125 C2.64034745 53.64574896 -5.24096449 59.12024445 -14.78125 59.84765625 C-26.81213726 60.03811885 -35.11145657 57.40700764 -43.8046875 49.015625 C-50.49328619 41.80865992 -52.80139991 34.51708391 -52.72607422 24.74072266 C-52.29953842 15.96067893 -48.70187961 8.73459094 -42.3671875 2.64453125 C-29.9572116 -7.14025744 -13.22669241 -8.46801156 0 0 Z " fill="#2FC36B" transform="translate(646.1171875,559.35546875)"/>
<path d="M0 0 C7.83849958 4.9206148 14.9616491 11.237461 17.30859375 20.44921875 C18.48990888 29.2605639 18.68583072 38.55647947 13.921875 46.33984375 C8.20711345 53.81192908 1.75483696 59.5909414 -7.69140625 61.44921875 C-18.41818897 62.3467959 -27.72123703 61.11635436 -36.12890625 54.01171875 C-43.60034742 46.8141797 -47.87000882 40.07192001 -48.19140625 29.51171875 C-47.85406769 19.70781676 -44.90439803 12.5768187 -38.06640625 5.5 C-27.55017196 -3.58062994 -12.79158994 -6.14772872 0 0 Z " fill="#FDB029" transform="translate(686.69140625,331.55078125)"/>
<path d="M0 0 C0.66 0 1.32 0 2 0 C2.07476563 0.83402344 2.14953125 1.66804687 2.2265625 2.52734375 C3.12091583 10.1819561 4.2577598 16.53277131 10 22 C15.72590294 25.71007136 21.21931777 28.11205352 28 29 C28 29.66 28 30.32 28 31 C26.91460938 31.17015625 25.82921875 31.3403125 24.7109375 31.515625 C23.26549711 31.75966039 21.82019144 32.00449462 20.375 32.25 C19.66214844 32.35957031 18.94929687 32.46914062 18.21484375 32.58203125 C12.33356512 33.60720826 8.0045 35.48152564 4.171875 40.296875 C1.15174171 45.50743464 -0.9010695 50.06577532 -2 56 C-2.66 56 -3.32 56 -4 56 C-4.08636719 55.2265625 -4.17273438 54.453125 -4.26171875 53.65625 C-5.36558632 45.47345185 -7.11804604 39.60515376 -13.24609375 33.9140625 C-16.36876304 31.74369661 -19.08797715 30.86092923 -22.75 29.875 C-24.84918138 29.30549115 -26.9383071 28.69305496 -29 28 C-29.33 27.34 -29.66 26.68 -30 26 C-29.23816406 25.91363281 -28.47632813 25.82726562 -27.69140625 25.73828125 C-19.71823221 24.65329252 -12.78219715 23.19691175 -7.21875 17.0234375 C-3.42910069 11.76622792 -1.49142447 6.26659931 0 0 Z " fill="#0DB2EC" transform="translate(673,153)"/>
<path d="M0 0 C0.33 0 0.66 0 1 0 C1.14695312 0.96099609 1.14695312 0.96099609 1.296875 1.94140625 C2.64094521 10.13977164 2.64094521 10.13977164 7 17 C10.20261729 19.0069735 13.53099984 20.5156682 17 22 C18.33782236 22.65761201 19.67286743 23.32107338 21 24 C20.28714844 24.09796875 19.57429687 24.1959375 18.83984375 24.296875 C10.16230238 25.44509916 10.16230238 25.44509916 3 30 C0.67834663 33.86942228 -1.22128808 37.85618762 -3 42 C-4.48498726 39.22508736 -5.43039514 36.5939872 -6.25 33.5625 C-7.80613514 28.87098366 -9.73889065 26.6829207 -14 24 C-16.95452021 22.80757109 -19.92772935 21.83975398 -23 21 C-23 20.34 -23 19.68 -23 19 C-22.34773437 18.89042969 -21.69546875 18.78085938 -21.0234375 18.66796875 C-11.8553332 17.06095335 -11.8553332 17.06095335 -4.8125 11.3125 C-2.7822859 7.60210872 -1.37770163 3.99533473 0 0 Z " fill="#3B81E5" transform="translate(715,202)"/>
<path d="M0 0 C2 2 2 2 3.25 4.4375 C5.40274648 7.58973591 7.52983853 8.53482071 11 10 C8 12 8 12 4.9375 13.6875 C1.34074231 16.5189901 0.84870805 18.58671813 0 23 C-2 21 -2 21 -2.625 17.625 C-4.13251675 13.65063765 -4.53073965 13.32799056 -8.125 11.5625 C-9.40664048 11.01746072 -10.69570611 10.4883519 -12 10 C-9 8 -9 8 -6 6.6875 C-2.69791174 4.83007535 -1.63300635 3.35673528 0 0 Z " fill="#11B5E7" transform="translate(751,249)"/>
<path d="M0 0 C0 0.33 0 0.66 0 1 C-12.21 1.33 -24.42 1.66 -37 2 C-36.34 1.67 -35.68 1.34 -35 1 C-35 0.34 -35 -0.32 -35 -1 C-39.09379545 -0.73896069 -43.1871829 -0.47231416 -47.28027344 -0.20043945 C-48.67307602 -0.10872227 -50.06598086 -0.01854468 -51.45898438 0.07006836 C-53.4598971 0.19761942 -55.46042608 0.3311462 -57.4609375 0.46484375 C-59.26763916 0.58267212 -59.26763916 0.58267212 -61.11083984 0.70288086 C-63.93776073 0.82164384 -63.93776073 0.82164384 -66 2 C-67.99960012 2.039992 -70.00047242 2.04346799 -72 2 C-72.33 1.34 -72.66 0.68 -73 0 C-49.40398554 -3.57128867 -23.57945537 -3.86096345 0 0 Z " fill="#DDEE93" transform="translate(536,224)"/>
<path d="M0 0 C0.33 0 0.66 0 1 0 C1.13535156 0.61488281 1.27070312 1.22976562 1.41015625 1.86328125 C2.5661598 6.69782765 2.5661598 6.69782765 5.7578125 10.265625 C7.88302063 11.18674509 7.88302063 11.18674509 11 12 C11 12.33 11 12.66 11 13 C9.9275 13.20625 8.855 13.4125 7.75 13.625 C3.29408826 15.2588343 2.22222392 16.91110799 0 21 C-0.433125 20.401875 -0.86625 19.80375 -1.3125 19.1875 C-4.46103764 15.10606232 -7.27346585 13.20571594 -12 11 C-12 10.67 -12 10.34 -12 10 C-10.7625 9.835 -9.525 9.67 -8.25 9.5 C-5.44921299 8.83456479 -4.31509867 8.42417129 -2.578125 6.0859375 C-1.60149857 4.08314563 -0.74237771 2.10014746 0 0 Z " fill="#14B6F0" transform="translate(628,202)"/>
<path d="M0 0 C6.41178831 2.05896413 12.68850591 4.36675324 18.9375 6.875 C19.81051758 7.22433594 20.68353516 7.57367188 21.58300781 7.93359375 C27.53795732 10.34313659 33.35961677 12.91263234 39 16 C38.67 16.66 38.34 17.32 38 18 C36.68 17.34 35.36 16.68 34 16 C33.67 16.66 33.34 17.32 33 18 C33.66 18 34.32 18 35 18 C34.67 18.66 34.34 19.32 34 20 C33.3608667 19.63237549 32.7217334 19.26475098 32.06323242 18.88598633 C29.1075369 17.18974595 26.14756485 15.50110315 23.1875 13.8125 C22.18267578 13.23435547 21.17785156 12.65621094 20.14257812 12.06054688 C13.57602479 8.32331234 6.93642839 4.99599592 0 2 C0 1.34 0 0.68 0 0 Z " fill="#FCC22B" transform="translate(630,244)"/>
<path d="M0 0 C0.66 0.33 1.32 0.66 2 1 C-1.94715769 4.47725797 -5.9864326 7.78364418 -10.14550781 11.00170898 C-15.18116903 14.9004351 -20.02650449 18.75044791 -24.421875 23.37890625 C-28.8970466 27.97592658 -33.95056868 32.05513178 -39 36 C-33.00213259 21.66443778 -12.31412472 9.08011216 0 0 Z " fill="#21DBC3" transform="translate(339,272)"/>
<path d="M0 0 C4.18090413 -0.02480683 8.36176872 -0.04291049 12.54272461 -0.05493164 C13.96363064 -0.05994565 15.38453156 -0.06675852 16.80541992 -0.07543945 C18.85336576 -0.08763388 20.9012431 -0.09325772 22.94921875 -0.09765625 C24.17987061 -0.10289307 25.41052246 -0.10812988 26.6784668 -0.11352539 C29.59219619 -0.01393817 32.17307326 0.32200678 35 1 C35 1.33 35 1.66 35 2 C22.79 2.33 10.58 2.66 -2 3 C-1.34 2.67 -0.68 2.34 0 2 C0 1.34 0 0.68 0 0 Z " fill="#DAE25B" transform="translate(501,223)"/>
<path d="M0 0 C8.17397951 2.58125669 16.06640834 5.77011881 24 9 C23.34 10.32 22.68 11.64 22 13 C21.51120361 12.73783691 21.02240723 12.47567383 20.51879883 12.20556641 C18.284802 11.0093398 16.04867933 9.81714139 13.8125 8.625 C13.04357422 8.2125 12.27464844 7.8 11.48242188 7.375 C7.7172599 5.37122281 4.01638925 3.46489548 0 2 C0 1.34 0 0.68 0 0 Z " fill="#FDC839" transform="translate(630,244)"/>
<path d="M0 0 C0.33 0 0.66 0 1 0 C1 3.63 1 7.26 1 11 C1.66 11 2.32 11 3 11 C3.33 9.02 3.66 7.04 4 5 C4.91145054 7.97022221 5.01801972 10.06485586 4.44140625 13.109375 C4.30283203 13.86347656 4.16425781 14.61757813 4.02148438 15.39453125 C3.87001953 16.17183594 3.71855469 16.94914062 3.5625 17.75 C3.41490234 18.54277344 3.26730469 19.33554687 3.11523438 20.15234375 C2.75096034 22.10297246 2.37647488 24.0516893 2 26 C1.67 26 1.34 26 1 26 C0.22471521 22.57426063 -0.11918778 19.42760755 -0.09765625 15.91796875 C-0.09443359 14.98662109 -0.09121094 14.05527344 -0.08789062 13.09570312 C-0.07951172 12.13599609 -0.07113281 11.17628906 -0.0625 10.1875 C-0.05798828 9.20845703 -0.05347656 8.22941406 -0.04882812 7.22070312 C-0.03708684 4.81373889 -0.02066419 2.40690143 0 0 Z " fill="#0974D5" transform="translate(295,442)"/>
<path d="M0 0 C0.66 0 1.32 0 2 0 C2.33 2.97 2.66 5.94 3 9 C9.78266212 9.38212181 14.16728625 8.97020711 20.1875 5.77734375 C20.785625 5.52082031 21.38375 5.26429688 22 5 C22.66 5.33 23.32 5.66 24 6 C17.24193894 10.10467917 10.99897708 12.59713353 3 11 C1.1953125 9.73046875 1.1953125 9.73046875 0 8 C-0.39078556 5.27492202 -0.13616953 2.76878044 0 0 Z " fill="#3B32A3" transform="translate(313,764)"/>
<path d="M0 0 C-0.33 0.66 -0.66 1.32 -1 2 C-1.66 2 -2.32 2 -3 2 C-3 2.66 -3 3.32 -3 4 C-7.95 4 -12.9 4 -18 4 C-12.40185694 0.26790462 -6.54467462 -0.27269478 0 0 Z " fill="#FBC828" transform="translate(526,240)"/>
<path d="M0 0 C0.66 0.33 1.32 0.66 2 1 C-0.06178074 2.75085334 -2.12439877 4.50070381 -4.1875 6.25 C-4.76564453 6.74113281 -5.34378906 7.23226562 -5.93945312 7.73828125 C-7.08321822 8.70757371 -8.23015533 9.67313671 -9.38037109 10.63476562 C-10.85185042 11.87512022 -12.29671365 13.1468794 -13.73828125 14.421875 C-14.48464844 14.94265625 -15.23101563 15.4634375 -16 16 C-16.99 15.67 -17.98 15.34 -19 15 C-12.77352578 9.8494239 -6.52576241 4.7681072 0 0 Z " fill="#5DC968" transform="translate(565,524)"/>
<path d="M0 0 C6.36559573 0.49126929 12.69264693 0.99655747 19 2 C19 2.33 19 2.66 19 3 C14.32798795 4.20568053 9.78503708 4.09382426 5 4 C4.67 3.34 4.34 2.68 4 2 C1.98330173 0.86649466 1.98330173 0.86649466 0 0 Z " fill="#C73DC1" transform="translate(492,651)"/>
<path d="M0 0 C-0.64066406 0.27972656 -1.28132812 0.55945313 -1.94140625 0.84765625 C-8.11352876 3.70835685 -12.5346723 6.8693089 -17 12 C-17.66 11.67 -18.32 11.34 -19 11 C-15.01029396 5.41441155 -7.44410673 -2.90543658 0 0 Z " fill="#61CA64" transform="translate(618,557)"/>
<path d="M0 0 C-1 3 -1 3 -4 5.25 C-6.8701902 7.49534018 -6.9872125 7.94428302 -7.875 11.8125 C-7.91625 12.864375 -7.9575 13.91625 -8 15 C-10 13 -10 13 -10.625 10.3125 C-9.76548617 5.75707668 -7.42383226 4.20037725 -3.9453125 1.3203125 C-2 0 -2 0 0 0 Z " fill="#2CCA80" transform="translate(546,540)"/>
<path d="M0 0 C2.04159095 -0.0272616 4.08328963 -0.04651345 6.125 -0.0625 C7.26195312 -0.07410156 8.39890625 -0.08570313 9.5703125 -0.09765625 C12.8129156 -0.005327 15.81932612 0.38610094 19 1 C18.67 1.66 18.34 2.32 18 3 C11.74017511 3.10792802 6.07306916 2.63505708 0 1 C0 0.67 0 0.34 0 0 Z " fill="#6039D2" transform="translate(492,686)"/>
<path d="M0 0 C2.42999536 2.27364177 3.42805835 3.68273845 4 7 C3.34 6.67 2.68 6.34 2 6 C2 5.34 2 4.68 2 4 C-1.35437341 7.00736926 -3.0345521 9.97976565 -5 14 C-5.99 14.495 -5.99 14.495 -7 15 C-5.45454854 9.52067211 -2.84456788 4.88570819 0 0 Z " fill="#F16C9E" transform="translate(444,468)"/>
<path d="M0 0 C0 0.66 0 1.32 0 2 C-1.79296875 3.40234375 -1.79296875 3.40234375 -4.1875 4.9375 C-5.00734375 5.4634375 -5.8271875 5.989375 -6.671875 6.53125 C-7.44015625 7.0159375 -8.2084375 7.500625 -9 8 C-9.969375 8.639375 -10.93875 9.27875 -11.9375 9.9375 C-12.618125 10.288125 -13.29875 10.63875 -14 11 C-14.66 10.67 -15.32 10.34 -16 10 C-14.22970554 8.70759488 -12.45874502 7.41610207 -10.6875 6.125 C-9.70136719 5.40570313 -8.71523438 4.68640625 -7.69921875 3.9453125 C-2.2248996 0 -2.2248996 0 0 0 Z " fill="#B7D550" transform="translate(680,439)"/>
<path d="M0 0 C2 3 2 3 2 7 C2.66 7 3.32 7 4 7 C4.33 5.68 4.66 4.36 5 3 C5.66 3.33 6.32 3.66 7 4 C5.68 6.97 4.36 9.94 3 13 C0.92655738 8.85311477 -0.03984679 5.50533429 -1 1 C-0.67 0.67 -0.34 0.34 0 0 Z " fill="#536FDA" transform="translate(709,231)"/>
<path d="M0 0 C3.63 0 7.26 0 11 0 C8 2 8 2 6 2 C6 2.66 6 3.32 6 4 C6.66 4.33 7.32 4.66 8 5 C5 5 5 5 2.3125 2.5 C1.549375 1.675 0.78625 0.85 0 0 Z " fill="#FDC32E" transform="translate(484,286)"/>
<path d="M0 0 C-0.33 1.32 -0.66 2.64 -1 4 C-5.455 3.01 -5.455 3.01 -10 2 C-10 1.34 -10 0.68 -10 0 C-3.375 -1.125 -3.375 -1.125 0 0 Z " fill="#5983E0" transform="translate(702,221)"/>
<path d="M0 0 C0.66 0 1.32 0 2 0 C2.33 3.3 2.66 6.6 3 10 C2.67 9.34 2.34 8.68 2 8 C0.68 8.33 -0.64 8.66 -2 9 C-1.34 6.03 -0.68 3.06 0 0 Z " fill="#3DD8F1" transform="translate(673,153)"/>
<path d="M0 0 C0.66 0 1.32 0 2 0 C2.33 2.97 2.66 5.94 3 9 C3.66 9 4.32 9 5 9 C5 9.66 5 10.32 5 11 C1.125 9.125 1.125 9.125 0 8 C-0.14115161 5.32941149 -0.04247107 2.67567762 0 0 Z " fill="#4F47B3" transform="translate(313,764)"/>
<path d="M0 0 C0.99 1.485 0.99 1.485 2 3 C2.66 2.67 3.32 2.34 4 2 C3.41789544 6.19115285 2.71843438 7.37542083 0 11 C0 7.37 0 3.74 0 0 Z " fill="#0B6ADA" transform="translate(410,485)"/>
<path d="M0 0 C0.33 0.99 0.66 1.98 1 3 C1.66 3 2.32 3 3 3 C2.67 6.63 2.34 10.26 2 14 C1.67 14 1.34 14 1 14 C-0.20568053 9.32798795 -0.09382426 4.78503708 0 0 Z " fill="#2481E2" transform="translate(295,454)"/>
<path d="M0 0 C-0.99 1.485 -0.99 1.485 -2 3 C-4.3431213 2.74438677 -6.67843403 2.40729228 -9 2 C-9.33 1.34 -9.66 0.68 -10 0 C-6.33694766 -0.74926071 -3.57644848 -1.2380014 0 0 Z " fill="#30BEEE" transform="translate(653,179)"/>
<path d="M0 0 C0.66 0.33 1.32 0.66 2 1 C0.90716423 2.03295436 -0.19970579 3.05107835 -1.3125 4.0625 C-1.92738281 4.63097656 -2.54226563 5.19945312 -3.17578125 5.78515625 C-3.77777344 6.18605469 -4.37976563 6.58695313 -5 7 C-5.99 6.67 -6.98 6.34 -8 6 C-5.36 4.02 -2.72 2.04 0 0 Z " fill="#49C86D" transform="translate(554,533)"/>
<path d="M0 0 C3.96 0.33 7.92 0.66 12 1 C9 3 9 3 6.5625 2.75 C4 2 4 2 0 0 Z " fill="#CE4BC5" transform="translate(492,651)"/>
</svg>
